<!DOCTYPE svg PUBLIC "-//W3C//DTD SVG 1.1//EN" "http://www.w3.org/Graphics/SVG/1.1/DTD/svg11.dtd">
<!-- Uploaded to: SVG Repo, www.svgrepo.com, Transformed by: SVG Repo Mixer Tools -->
<svg width="216px" height="216px" viewBox="-4.8 -4.8 57.60 57.60" xmlns="http://www.w3.org/2000/svg" fill="#000000" stroke="#000000" stroke-width="0.8640000000000001" transform="matrix(1, 0, 0, 1, 0, 0)rotate(0)">
<g id="SVGRepo_bgCarrier" stroke-width="0" transform="translate(0,0), scale(1)">
<path transform="translate(-4.8, -4.8), scale(1.7999999999999998)" d="M16,29.68146422186068C17.92341259753591,29.4739721704669,20.002060867703584,29.707492725420817,21.656649864523587,28.705043612820276C23.293049611498567,27.7136146371849,24.069614514070064,25.80127669727141,25.083045728526002,24.178411108507028C25.979571838491093,22.74275237554386,26.560964808845632,21.194616927110957,27.2981469263327,19.670990467298765C28.130016518006723,17.95166156481769,29.802633245621937,16.46493442728681,29.7386917610486,14.556005308904139C29.675296861347203,12.6633941065767,27.97694201579971,11.269867613431087,26.963167585263854,9.670412243476939C25.981986579952085,8.122380274458553,25.287419206724113,6.334477863994869,23.826345399646655,5.227959688563605C22.358499385091314,4.1163127026466775,20.47765173784547,3.790234794335579,18.67895426292324,3.396511112735677C16.873416259285317,3.0012900819775177,15.05994252575627,2.769189017272592,13.216693609092196,2.905572949431324C11.227212521930184,3.0527767541749857,9.179571155521538,3.238976258058868,7.446841299643333,4.227587001908361C5.661269745735618,5.246346629161696,4.130195208237868,6.777329111766925,3.2093134345493635,8.615293668316937C2.3011952455567566,10.427783710161743,2.1687729002087357,12.53240538625403,2.271425189849122,14.557068643291451C2.3673224342731856,16.448498711892206,3.3895030717099512,18.11679623968621,3.784952207516916,19.968909618204034C4.224102916588638,22.02570233769643,3.6645593536459327,24.33007956246449,4.74353512349615,26.13536649930064C5.8387704303048125,27.96785805971621,7.736361075509516,29.345605983405488,9.772557771857748,29.98706425177148C11.776731262462203,30.618434324757928,13.910850094850788,29.906835522872154,16,29.68146422186068" fill="#deecb6" strokewidth="0"/>
</g>
<g id="SVGRepo_tracerCarrier" stroke-linecap="round" stroke-linejoin="round"/>
<g id="SVGRepo_iconCarrier">
<defs>
<style>.a{fill:none;stroke:#036316;stroke-linecap:round;stroke-linejoin:round;}</style>
</defs>
<path class="a" d="M5.4756,18.268A10.0321,10.0321,0,0,1,15.5077,8.2359a13.1521,13.1521,0,0,1,4.815.7086,13.2849,13.2849,0,0,1,5.6886,4.3323c2.2622,2.73-13.0369,18.3835-15.5683,15.805a22.3862,22.3862,0,0,1-3.8109-5.7079,12.37,12.37,0,0,1-1.1566-5.1056Z"/>
<path class="a" d="M40.0013,33.0064q.01.23.01.4615A10.0321,10.0321,0,0,1,29.98,43.5a14.2254,14.2254,0,0,1-5.7569-1.8163"/>
<path class="a" d="M18.144,36.1636c.9385,1.5055,6.0593.0078,11.4379-3.3452s8.9772-7.2915,8.0386-8.7969"/>
<path class="a" d="M37.62,24.0219c-.9385-1.5055-6.0592-.0077-11.4379,3.3452s-8.9771,7.2915-8.0386,8.7969a47.327,47.327,0,0,0,6.0784,5.52"/>
<path class="a" d="M37.62,24.0219S39.9945,29.9376,40,33.007"/>
<path class="a" d="M36.0614,17.2767s3.1866-4.9868,3.5116-5.009c-1.6345.8738-5.55,1.3153-5.55,1.3153C26.74,17.94,10.3441,38.436,10.3441,38.436S29.18,19.7931,36.0624,17.2762Z"/>
<path class="a" d="M27.7435,28.5631l.1147-.5231"/>
<path class="a" d="M24.3332,30.9494l-.9762.2778"/>
<path class="a" d="M21.5216,34.2508l.9485-.6989"/>
<path class="a" d="M26.9489,32.9946l.1258-.5805"/>
<path class="a" d="M32.3164,28.2012l.9042-.2891"/>
<path class="a" d="M32.0734,26.4281l.9319-.73"/>
<path class="a" d="M25.92,10.9419c.8128-.7553,3.5894-3.3688,4.1036-5.5184M35.22,4.5c-2.2917,2.8192-4.3589,5.7541-7.6195,8.0736m7.1907-2.8829c-2.2971.7357-6.1029,4.5385-7.5955,5.9724"/>
<path class="a" d="M30.6594,23.5575a25.9279,25.9279,0,0,1,5.7218-4.72m-.9711,3.08a63.1462,63.1462,0,0,0,7.0044-7.5857"/>
<path class="a" d="M42.5245,18.5456a22.5886,22.5886,0,0,0-4.482,3.4477"/>
<path class="a" d="M8.4867,11.1026c-2.1309,4.9643,2.3374,11.02,7.7583,15.5239"/>
<path class="a" d="M23.8308,18.7814C22.4385,16.9,16.7237,8.5688,8.4865,11.1027"/>
<path class="a" d="M25.8125,34.8938s3.9162,7.3377,8.7609,7.4954"/>
<path class="a" d="M34.9086,28.798s4.8761,6.8024,2.118,11.8107"/>
</g>
</svg>